<svg xmlns="http://www.w3.org/2000/svg" xmlns:xlink="http://www.w3.org/1999/xlink" width="500" zoomAndPan="magnify" viewBox="0 0 375 374.999991" height="500" preserveAspectRatio="xMidYMid meet" version="1.0"><defs><g/></defs><rect x="-37.5" width="450" fill="#ffffff" y="-37.499999" height="449.999989" fill-opacity="1"/><rect x="-37.5" width="450" fill="#172405" y="-37.499999" height="449.999989" fill-opacity="1"/><path fill="#8bc53f" d="M 105.839844 135.496094 C 67.695312 130.429688 45.539062 158.511719 48.003906 187.136719 C 49.351562 202.777344 61.625 216.539062 77.992188 214.480469 C 88.769531 213.128906 98.941406 203.910156 99.652344 193.007812 C 100.945312 173.121094 84.992188 157.1875 64.78125 162.4375 C 83.976562 169.75 71.269531 188.253906 90.117188 195.789062 C 90.667969 190.617188 88.644531 186.847656 86.050781 183.386719 C 88.535156 184.425781 90.167969 186.414062 91.503906 188.734375 C 91.617188 181.894531 88.089844 178.355469 83.488281 175.796875 C 84.625 175.683594 86.011719 176.304688 87.019531 176.761719 C 85.882812 174.410156 83.597656 171.519531 81.46875 169.195312 C 84.511719 171.195312 87.179688 173.613281 89.472656 176.4375 C 89.722656 175.589844 89.9375 174.296875 90.984375 173.660156 C 90.742188 175.566406 90.847656 177.457031 91.308594 179.324219 C 92.628906 180.878906 93.75 183.769531 94.648438 186.894531 C 95.492188 186.035156 96.484375 185.214844 97.613281 185.214844 C 96.503906 186.101562 95.683594 187.203125 95.152344 188.523438 C 96.253906 198.472656 86.742188 210.671875 76.484375 210.582031 C 43.371094 210.296875 37.535156 140.609375 105.839844 135.496094 Z M 105.839844 135.496094 " fill-opacity="1" fill-rule="evenodd"/><path fill="#8bc53f" d="M 78.265625 229.8125 C 120.648438 235.425781 150.574219 203.40625 140.910156 162.039062 C 161.246094 201.019531 123.703125 244.621094 78.265625 229.8125 Z M 78.265625 229.8125 " fill-opacity="1" fill-rule="evenodd"/><path fill="#8bc53f" d="M 59.882812 216.453125 C 77.386719 223.246094 92.734375 224.738281 106.296875 210.902344 C 94.835938 229.308594 75.992188 227.625 59.882812 216.453125 Z M 59.882812 216.453125 " fill-opacity="1" fill-rule="evenodd"/><path fill="#8bc53f" d="M 106.277344 169.210938 C 115.648438 191.039062 105.863281 220.617188 84.894531 218.382812 C 116.433594 204.992188 95.941406 185.527344 106.625 157.496094 C 111.453125 144.839844 122.222656 136.414062 142.941406 135.101562 C 125.589844 153.128906 140.738281 183.765625 113.226562 186.84375 C 113.382812 179.273438 116.347656 172.714844 122.207031 167.167969 C 120.339844 168.160156 118.636719 169.386719 117.09375 170.835938 C 115.554688 172.285156 114.230469 173.914062 113.125 175.71875 C 112.957031 167.644531 117.101562 161.441406 123.921875 156.367188 C 122.460938 156.554688 121.078125 156.988281 119.769531 157.667969 C 118.464844 158.347656 117.316406 159.234375 116.328125 160.324219 C 117.113281 156.703125 119.25 153.292969 121.878906 149.957031 C 118.128906 152.804688 115.207031 156.335938 113.113281 160.550781 C 113.023438 159.175781 112.171875 158.027344 111.097656 156.917969 C 112.160156 162.699219 110.5625 167.773438 109.386719 172.953125 C 109.140625 172.144531 108.746094 171.417969 108.207031 170.769531 C 107.667969 170.121094 107.023438 169.601562 106.277344 169.210938 Z M 106.277344 169.210938 " fill-opacity="1" fill-rule="evenodd"/><path fill="#8bc53f" d="M 101.980469 153.25 C 102.054688 153.785156 102.074219 154.320312 102.039062 154.859375 C 102.003906 155.398438 101.917969 155.929688 101.777344 156.453125 C 101.640625 156.976562 101.453125 157.480469 101.214844 157.964844 C 100.976562 158.449219 100.695312 158.90625 100.367188 159.335938 C 100.039062 159.765625 99.671875 160.160156 99.265625 160.515625 C 98.859375 160.871094 98.421875 161.1875 97.957031 161.457031 C 97.488281 161.730469 97 161.953125 96.488281 162.128906 C 95.976562 162.300781 95.453125 162.425781 94.917969 162.496094 C 94.382812 162.570312 93.84375 162.589844 93.304688 162.554688 C 92.765625 162.519531 92.234375 162.433594 91.714844 162.292969 C 91.191406 162.15625 90.6875 161.96875 90.203125 161.730469 C 89.71875 161.492188 89.261719 161.210938 88.832031 160.882812 C 88.402344 160.554688 88.007812 160.1875 87.652344 159.78125 C 87.292969 159.375 86.980469 158.9375 86.707031 158.472656 C 86.4375 158.003906 86.214844 157.515625 86.039062 157.003906 C 85.863281 156.492188 85.742188 155.96875 85.667969 155.433594 C 85.597656 154.898438 85.578125 154.359375 85.613281 153.820312 C 85.648438 153.28125 85.734375 152.75 85.871094 152.230469 C 86.011719 151.707031 86.199219 151.203125 86.4375 150.71875 C 86.675781 150.234375 86.957031 149.777344 87.285156 149.347656 C 87.613281 148.917969 87.980469 148.523438 88.386719 148.167969 C 88.792969 147.808594 89.226562 147.496094 89.695312 147.222656 C 90.164062 146.953125 90.652344 146.730469 91.164062 146.554688 C 91.675781 146.378906 92.199219 146.257812 92.734375 146.183594 C 93.269531 146.113281 93.804688 146.09375 94.34375 146.128906 C 94.882812 146.164062 95.414062 146.25 95.9375 146.386719 C 96.460938 146.527344 96.964844 146.714844 97.449219 146.953125 C 97.933594 147.191406 98.390625 147.472656 98.820312 147.800781 C 99.25 148.128906 99.644531 148.496094 100 148.902344 C 100.359375 149.308594 100.671875 149.742188 100.941406 150.210938 C 101.214844 150.679688 101.4375 151.167969 101.613281 151.679688 C 101.785156 152.191406 101.910156 152.714844 101.980469 153.25 Z M 101.980469 153.25 " fill-opacity="1" fill-rule="nonzero"/><g fill="#ffffff" fill-opacity="1"><g transform="translate(119.290645, 224.218668)"><g><path d="M 3.890625 -17.53125 C 3.492188 -18.519531 3.113281 -19.207031 2.75 -19.59375 C 2.382812 -19.976562 1.847656 -20.242188 1.140625 -20.390625 C 1.046875 -20.410156 0.90625 -20.4375 0.71875 -20.46875 C 0.539062 -20.5 0.421875 -20.566406 0.359375 -20.671875 C 0.304688 -20.773438 0.28125 -20.941406 0.28125 -21.171875 C 0.28125 -21.453125 0.351562 -21.632812 0.5 -21.71875 C 0.644531 -21.8125 0.878906 -21.859375 1.203125 -21.859375 C 2.921875 -21.859375 4.226562 -21.59375 5.125 -21.0625 C 6.019531 -20.539062 6.726562 -19.601562 7.25 -18.25 L 11.171875 -5.671875 L 11.3125 -5.671875 L 15.5 -21.6875 L 17.296875 -21.6875 L 22.890625 -5.671875 L 23 -5.671875 L 26.875 -18.625 C 26.96875 -18.96875 27.015625 -19.269531 27.015625 -19.53125 C 27.015625 -19.84375 26.898438 -20.050781 26.671875 -20.15625 C 26.441406 -20.257812 26.007812 -20.3125 25.375 -20.3125 L 25.15625 -20.3125 C 24.925781 -20.3125 24.765625 -20.351562 24.671875 -20.4375 C 24.585938 -20.519531 24.535156 -20.71875 24.515625 -21.03125 C 24.515625 -21.238281 24.5625 -21.414062 24.65625 -21.5625 C 24.757812 -21.71875 24.90625 -21.796875 25.09375 -21.796875 C 26.582031 -21.722656 27.832031 -21.6875 28.84375 -21.6875 C 29.28125 -21.6875 30.113281 -21.710938 31.34375 -21.765625 L 32.078125 -21.796875 C 32.273438 -21.796875 32.425781 -21.71875 32.53125 -21.5625 C 32.632812 -21.414062 32.6875 -21.238281 32.6875 -21.03125 C 32.664062 -20.71875 32.609375 -20.519531 32.515625 -20.4375 C 32.421875 -20.351562 32.257812 -20.3125 32.03125 -20.3125 C 31.03125 -20.3125 30.25 -20.144531 29.6875 -19.8125 C 29.125 -19.476562 28.71875 -18.867188 28.46875 -17.984375 L 22.828125 0.34375 L 21.203125 0.34375 L 15.640625 -16.046875 L 11.203125 0.34375 L 9.59375 0.34375 Z M 3.890625 -17.53125 "/></g></g></g><g fill="#ffffff" fill-opacity="1"><g transform="translate(151.393232, 224.218668)"><g><path d="M 1.6875 0.109375 C 1.519531 0.109375 1.382812 0.0390625 1.28125 -0.09375 C 1.1875 -0.238281 1.140625 -0.398438 1.140625 -0.578125 C 1.160156 -0.878906 1.226562 -1.054688 1.34375 -1.109375 C 1.457031 -1.171875 1.660156 -1.203125 1.953125 -1.203125 C 2.554688 -1.203125 2.984375 -1.304688 3.234375 -1.515625 C 3.484375 -1.722656 3.625 -1.960938 3.65625 -2.234375 C 3.695312 -2.503906 3.71875 -2.941406 3.71875 -3.546875 L 3.71875 -11.40625 C 3.71875 -12.007812 3.695312 -12.445312 3.65625 -12.71875 C 3.625 -12.988281 3.484375 -13.226562 3.234375 -13.4375 C 2.984375 -13.644531 2.554688 -13.75 1.953125 -13.75 C 1.679688 -13.75 1.476562 -13.785156 1.34375 -13.859375 C 1.207031 -13.941406 1.140625 -14.132812 1.140625 -14.4375 C 1.140625 -14.570312 1.179688 -14.703125 1.265625 -14.828125 C 1.359375 -14.953125 1.5 -15.03125 1.6875 -15.0625 C 3.125 -15.257812 4.359375 -15.554688 5.390625 -15.953125 C 5.710938 -16.066406 5.976562 -16.132812 6.1875 -16.15625 L 6.296875 -16.15625 C 6.660156 -16.15625 6.84375 -15.9375 6.84375 -15.5 L 6.84375 -3.546875 C 6.84375 -2.941406 6.863281 -2.503906 6.90625 -2.234375 C 6.957031 -1.960938 7.109375 -1.722656 7.359375 -1.515625 C 7.609375 -1.304688 8.03125 -1.203125 8.625 -1.203125 L 8.828125 -1.203125 C 9.015625 -1.203125 9.15625 -1.164062 9.25 -1.09375 C 9.34375 -1.03125 9.398438 -0.859375 9.421875 -0.578125 C 9.421875 -0.398438 9.375 -0.238281 9.28125 -0.09375 C 9.1875 0.0390625 9.050781 0.109375 8.875 0.109375 C 7.539062 0.0351562 6.335938 0 5.265625 0 C 4.234375 0 3.039062 0.0351562 1.6875 0.109375 Z M 5.09375 -19.96875 C 4.445312 -19.96875 3.90625 -20.164062 3.46875 -20.5625 C 3.039062 -20.96875 2.828125 -21.46875 2.828125 -22.0625 C 2.828125 -22.59375 3.085938 -23.0625 3.609375 -23.46875 C 4.140625 -23.882812 4.738281 -24.09375 5.40625 -24.09375 C 5.976562 -24.09375 6.445312 -23.890625 6.8125 -23.484375 C 7.175781 -23.085938 7.359375 -22.582031 7.359375 -21.96875 C 7.359375 -21.414062 7.140625 -20.941406 6.703125 -20.546875 C 6.265625 -20.160156 5.726562 -19.96875 5.09375 -19.96875 Z M 5.09375 -19.96875 "/></g></g></g><g fill="#ffffff" fill-opacity="1"><g transform="translate(161.567075, 224.218668)"><g><path d="M 1.34375 0.109375 C 1.175781 0.109375 1.039062 0.0390625 0.9375 -0.09375 C 0.84375 -0.238281 0.796875 -0.398438 0.796875 -0.578125 C 0.816406 -0.878906 0.878906 -1.054688 0.984375 -1.109375 C 1.085938 -1.171875 1.285156 -1.203125 1.578125 -1.203125 C 2.171875 -1.203125 2.59375 -1.304688 2.84375 -1.515625 C 3.101562 -1.722656 3.253906 -1.960938 3.296875 -2.234375 C 3.347656 -2.503906 3.375 -2.941406 3.375 -3.546875 L 3.375 -20.3125 C 3.375 -20.90625 3.351562 -21.335938 3.3125 -21.609375 C 3.28125 -21.890625 3.140625 -22.132812 2.890625 -22.34375 C 2.640625 -22.550781 2.210938 -22.65625 1.609375 -22.65625 C 1.335938 -22.65625 1.132812 -22.691406 1 -22.765625 C 0.863281 -22.847656 0.796875 -23.039062 0.796875 -23.34375 C 0.796875 -23.476562 0.835938 -23.609375 0.921875 -23.734375 C 1.015625 -23.859375 1.15625 -23.929688 1.34375 -23.953125 C 2.78125 -24.160156 4.015625 -24.460938 5.046875 -24.859375 C 5.367188 -24.972656 5.632812 -25.039062 5.84375 -25.0625 L 5.953125 -25.0625 C 6.316406 -25.0625 6.5 -24.84375 6.5 -24.40625 L 6.5 -3.546875 C 6.5 -2.941406 6.519531 -2.503906 6.5625 -2.234375 C 6.613281 -1.960938 6.765625 -1.722656 7.015625 -1.515625 C 7.265625 -1.304688 7.6875 -1.203125 8.28125 -1.203125 L 8.484375 -1.203125 C 8.671875 -1.203125 8.8125 -1.164062 8.90625 -1.09375 C 9 -1.03125 9.054688 -0.859375 9.078125 -0.578125 C 9.078125 -0.398438 9.03125 -0.238281 8.9375 -0.09375 C 8.84375 0.0390625 8.707031 0.109375 8.53125 0.109375 C 7.195312 0.0351562 5.992188 0 4.921875 0 C 3.890625 0 2.695312 0.0351562 1.34375 0.109375 Z M 1.34375 0.109375 "/></g></g></g><g fill="#ffffff" fill-opacity="1"><g transform="translate(171.397206, 224.218668)"><g><path d="M 8.625 0.40625 C 7.34375 0.40625 6.148438 0.0546875 5.046875 -0.640625 C 3.953125 -1.335938 3.070312 -2.3125 2.40625 -3.5625 C 1.738281 -4.8125 1.40625 -6.222656 1.40625 -7.796875 C 1.40625 -9.222656 1.75 -10.566406 2.4375 -11.828125 C 3.125 -13.085938 4.070312 -14.09375 5.28125 -14.84375 C 6.5 -15.601562 7.851562 -15.984375 9.34375 -15.984375 C 10.0625 -15.984375 10.773438 -15.894531 11.484375 -15.71875 C 12.191406 -15.550781 12.8125 -15.316406 13.34375 -15.015625 L 13.4375 -15.015625 L 13.4375 -20.28125 C 13.4375 -20.875 13.421875 -21.304688 13.390625 -21.578125 C 13.359375 -21.859375 13.210938 -22.101562 12.953125 -22.3125 C 12.703125 -22.519531 12.28125 -22.625 11.6875 -22.625 C 11.414062 -22.625 11.207031 -22.660156 11.0625 -22.734375 C 10.925781 -22.816406 10.859375 -23.007812 10.859375 -23.3125 C 10.859375 -23.445312 10.90625 -23.578125 11 -23.703125 C 11.09375 -23.828125 11.226562 -23.898438 11.40625 -23.921875 C 12.851562 -24.128906 14.09375 -24.425781 15.125 -24.8125 C 15.445312 -24.925781 15.710938 -25 15.921875 -25.03125 L 16.015625 -25.03125 C 16.378906 -25.03125 16.5625 -24.8125 16.5625 -24.375 L 16.5625 -3.15625 C 16.5625 -1.8125 17.457031 -1.140625 19.25 -1.140625 C 19.632812 -1.140625 19.828125 -0.953125 19.828125 -0.578125 C 19.828125 -0.265625 19.632812 -0.0703125 19.25 0 L 13.78125 0.375 C 13.625 0.375 13.53125 0.320312 13.5 0.21875 C 13.476562 0.113281 13.46875 -0.0625 13.46875 -0.3125 L 13.46875 -1.6875 L 13.375 -1.6875 C 12.78125 -1.0625 12.050781 -0.554688 11.1875 -0.171875 C 10.332031 0.210938 9.476562 0.40625 8.625 0.40625 Z M 9.796875 -1.3125 C 10.597656 -1.3125 11.28125 -1.460938 11.84375 -1.765625 C 12.40625 -2.078125 12.9375 -2.5 13.4375 -3.03125 L 13.4375 -12.09375 C 13.226562 -12.757812 12.796875 -13.367188 12.140625 -13.921875 C 11.492188 -14.472656 10.675781 -14.75 9.6875 -14.75 C 8.800781 -14.75 7.992188 -14.46875 7.265625 -13.90625 C 6.546875 -13.34375 5.976562 -12.519531 5.5625 -11.4375 C 5.15625 -10.363281 4.953125 -9.09375 4.953125 -7.625 C 4.953125 -5.863281 5.367188 -4.367188 6.203125 -3.140625 C 7.035156 -1.921875 8.234375 -1.3125 9.796875 -1.3125 Z M 9.796875 -1.3125 "/></g></g></g><g fill="#ffffff" fill-opacity="1"><g transform="translate(191.332435, 224.218668)"><g/></g></g><g fill="#ffffff" fill-opacity="1"><g transform="translate(198.997183, 224.218668)"><g><path d="M 13.375 0.6875 C 11.445312 0.6875 9.660156 0.351562 8.015625 -0.3125 C 6.378906 -0.976562 5.054688 -1.988281 4.046875 -3.34375 C 3.046875 -4.707031 2.546875 -6.410156 2.546875 -8.453125 C 2.546875 -10.148438 3.035156 -11.625 4.015625 -12.875 C 5.003906 -14.125 6.40625 -14.894531 8.21875 -15.1875 L 8.21875 -15.296875 C 6.769531 -16.367188 6.046875 -17.707031 6.046875 -19.3125 C 6.046875 -20.832031 6.59375 -22.050781 7.6875 -22.96875 C 8.789062 -23.882812 10.304688 -24.34375 12.234375 -24.34375 C 13.609375 -24.34375 14.765625 -24.035156 15.703125 -23.421875 C 16.648438 -22.816406 17.125 -21.929688 17.125 -20.765625 C 17.125 -20.023438 16.910156 -19.390625 16.484375 -18.859375 C 16.054688 -18.335938 15.488281 -18.078125 14.78125 -18.078125 C 14.34375 -18.078125 13.96875 -18.191406 13.65625 -18.421875 C 13.351562 -18.648438 13.203125 -18.847656 13.203125 -19.015625 C 13.203125 -19.035156 13.300781 -19.132812 13.5 -19.3125 C 13.707031 -19.5 13.894531 -19.722656 14.0625 -19.984375 C 14.238281 -20.253906 14.328125 -20.5625 14.328125 -20.90625 C 14.328125 -21.5625 14.09375 -22.085938 13.625 -22.484375 C 13.15625 -22.890625 12.566406 -23.09375 11.859375 -23.09375 C 10.753906 -23.09375 9.898438 -22.757812 9.296875 -22.09375 C 8.691406 -21.4375 8.390625 -20.613281 8.390625 -19.625 C 8.390625 -17.957031 9.085938 -16.742188 10.484375 -15.984375 L 11.625 -15.984375 C 11.988281 -15.984375 12.234375 -15.941406 12.359375 -15.859375 C 12.484375 -15.785156 12.554688 -15.550781 12.578125 -15.15625 C 12.578125 -14.925781 12.519531 -14.726562 12.40625 -14.5625 C 12.289062 -14.40625 12.128906 -14.328125 11.921875 -14.328125 L 10.71875 -14.328125 C 9.226562 -14.191406 8.097656 -13.609375 7.328125 -12.578125 C 6.566406 -11.546875 6.1875 -10.351562 6.1875 -9 C 6.1875 -7.539062 6.53125 -6.257812 7.21875 -5.15625 C 7.90625 -4.050781 8.859375 -3.203125 10.078125 -2.609375 C 11.304688 -2.015625 12.703125 -1.71875 14.265625 -1.71875 C 15.941406 -1.71875 17.476562 -2.066406 18.875 -2.765625 C 20.269531 -3.460938 21.378906 -4.425781 22.203125 -5.65625 C 23.023438 -6.882812 23.4375 -8.265625 23.4375 -9.796875 C 23.4375 -11.128906 23.070312 -12.285156 22.34375 -13.265625 C 21.613281 -14.253906 20.601562 -14.75 19.3125 -14.75 C 18.65625 -14.75 18.007812 -14.554688 17.375 -14.171875 C 16.75 -13.796875 16.4375 -13.265625 16.4375 -12.578125 C 16.4375 -12.210938 16.53125 -11.894531 16.71875 -11.625 C 16.914062 -11.363281 17.207031 -11.203125 17.59375 -11.140625 C 18.195312 -11.066406 18.679688 -11.175781 19.046875 -11.46875 C 19.410156 -11.769531 19.613281 -11.9375 19.65625 -11.96875 C 19.769531 -11.9375 19.910156 -11.773438 20.078125 -11.484375 C 20.253906 -11.203125 20.34375 -10.878906 20.34375 -10.515625 C 20.34375 -9.828125 20.109375 -9.285156 19.640625 -8.890625 C 19.171875 -8.503906 18.59375 -8.3125 17.90625 -8.3125 C 17.039062 -8.3125 16.34375 -8.660156 15.8125 -9.359375 C 15.28125 -10.066406 15.015625 -10.96875 15.015625 -12.0625 C 15.015625 -13.71875 15.453125 -14.976562 16.328125 -15.84375 C 17.203125 -16.71875 18.234375 -17.304688 19.421875 -17.609375 C 20.609375 -17.921875 22.15625 -18.191406 24.0625 -18.421875 C 25.738281 -18.585938 26.960938 -18.796875 27.734375 -19.046875 C 28.242188 -19.222656 28.664062 -19.476562 29 -19.8125 C 29.332031 -20.144531 29.5 -20.519531 29.5 -20.9375 C 29.5 -21.625 29.070312 -22.023438 28.21875 -22.140625 C 27.625 -22.203125 27.144531 -22.082031 26.78125 -21.78125 C 26.414062 -21.488281 26.207031 -21.332031 26.15625 -21.3125 C 26.019531 -21.332031 25.859375 -21.515625 25.671875 -21.859375 C 25.492188 -22.203125 25.4375 -22.59375 25.5 -23.03125 C 25.59375 -23.675781 25.867188 -24.15625 26.328125 -24.46875 C 26.785156 -24.789062 27.328125 -24.953125 27.953125 -24.953125 C 28.453125 -24.953125 28.875 -24.875 29.21875 -24.71875 C 29.769531 -24.46875 30.171875 -24.066406 30.421875 -23.515625 C 30.671875 -22.960938 30.796875 -22.351562 30.796875 -21.6875 C 30.796875 -20.445312 30.398438 -19.363281 29.609375 -18.4375 C 28.816406 -17.507812 27.753906 -16.800781 26.421875 -16.3125 C 25.097656 -15.820312 23.632812 -15.578125 22.03125 -15.578125 C 24 -13.898438 24.984375 -11.960938 24.984375 -9.765625 C 24.984375 -7.648438 24.472656 -5.800781 23.453125 -4.21875 C 22.441406 -2.644531 21.050781 -1.429688 19.28125 -0.578125 C 17.519531 0.265625 15.550781 0.6875 13.375 0.6875 Z M 13.375 0.6875 "/></g></g></g><g fill="#ffffff" fill-opacity="1"><g transform="translate(230.206124, 224.218668)"><g/></g></g><g fill="#ffffff" fill-opacity="1"><g transform="translate(237.870872, 224.218668)"><g><path d="M 3.890625 -17.53125 C 3.492188 -18.519531 3.113281 -19.207031 2.75 -19.59375 C 2.382812 -19.976562 1.847656 -20.242188 1.140625 -20.390625 C 1.046875 -20.410156 0.90625 -20.4375 0.71875 -20.46875 C 0.539062 -20.5 0.421875 -20.566406 0.359375 -20.671875 C 0.304688 -20.773438 0.28125 -20.941406 0.28125 -21.171875 C 0.28125 -21.453125 0.351562 -21.632812 0.5 -21.71875 C 0.644531 -21.8125 0.878906 -21.859375 1.203125 -21.859375 C 2.921875 -21.859375 4.226562 -21.59375 5.125 -21.0625 C 6.019531 -20.539062 6.726562 -19.601562 7.25 -18.25 L 11.171875 -5.671875 L 11.3125 -5.671875 L 15.5 -21.6875 L 17.296875 -21.6875 L 22.890625 -5.671875 L 23 -5.671875 L 26.875 -18.625 C 26.96875 -18.96875 27.015625 -19.269531 27.015625 -19.53125 C 27.015625 -19.84375 26.898438 -20.050781 26.671875 -20.15625 C 26.441406 -20.257812 26.007812 -20.3125 25.375 -20.3125 L 25.15625 -20.3125 C 24.925781 -20.3125 24.765625 -20.351562 24.671875 -20.4375 C 24.585938 -20.519531 24.535156 -20.71875 24.515625 -21.03125 C 24.515625 -21.238281 24.5625 -21.414062 24.65625 -21.5625 C 24.757812 -21.71875 24.90625 -21.796875 25.09375 -21.796875 C 26.582031 -21.722656 27.832031 -21.6875 28.84375 -21.6875 C 29.28125 -21.6875 30.113281 -21.710938 31.34375 -21.765625 L 32.078125 -21.796875 C 32.273438 -21.796875 32.425781 -21.71875 32.53125 -21.5625 C 32.632812 -21.414062 32.6875 -21.238281 32.6875 -21.03125 C 32.664062 -20.71875 32.609375 -20.519531 32.515625 -20.4375 C 32.421875 -20.351562 32.257812 -20.3125 32.03125 -20.3125 C 31.03125 -20.3125 30.25 -20.144531 29.6875 -19.8125 C 29.125 -19.476562 28.71875 -18.867188 28.46875 -17.984375 L 22.828125 0.34375 L 21.203125 0.34375 L 15.640625 -16.046875 L 11.203125 0.34375 L 9.59375 0.34375 Z M 3.890625 -17.53125 "/></g></g></g><g fill="#ffffff" fill-opacity="1"><g transform="translate(269.973459, 224.218668)"><g><path d="M 9.453125 0.40625 C 7.734375 0.40625 6.269531 0.0390625 5.0625 -0.6875 C 3.863281 -1.414062 2.953125 -2.410156 2.328125 -3.671875 C 1.710938 -4.929688 1.40625 -6.332031 1.40625 -7.875 C 1.40625 -9.226562 1.71875 -10.523438 2.34375 -11.765625 C 2.976562 -13.015625 3.878906 -14.03125 5.046875 -14.8125 C 6.222656 -15.59375 7.566406 -15.984375 9.078125 -15.984375 C 11.117188 -15.984375 12.6875 -15.460938 13.78125 -14.421875 C 14.882812 -13.378906 15.515625 -11.972656 15.671875 -10.203125 C 15.671875 -9.453125 15.460938 -8.9375 15.046875 -8.65625 C 14.640625 -8.382812 14.046875 -8.25 13.265625 -8.25 L 4.921875 -8.25 C 4.921875 -6.113281 5.359375 -4.421875 6.234375 -3.171875 C 7.117188 -1.929688 8.488281 -1.3125 10.34375 -1.3125 C 11.332031 -1.3125 12.171875 -1.519531 12.859375 -1.9375 C 13.546875 -2.363281 14.195312 -3.082031 14.8125 -4.09375 C 14.925781 -4.207031 15.039062 -4.265625 15.15625 -4.265625 C 15.320312 -4.265625 15.460938 -4.21875 15.578125 -4.125 C 15.804688 -3.988281 15.921875 -3.78125 15.921875 -3.5 C 15.921875 -3.363281 15.894531 -3.265625 15.84375 -3.203125 C 15.132812 -2.054688 14.234375 -1.164062 13.140625 -0.53125 C 12.054688 0.09375 10.828125 0.40625 9.453125 0.40625 Z M 10.515625 -9.5625 C 11.679688 -9.5625 12.300781 -10.039062 12.375 -11 C 12.375 -12.050781 12.085938 -12.941406 11.515625 -13.671875 C 10.941406 -14.410156 10.128906 -14.78125 9.078125 -14.78125 C 7.910156 -14.78125 6.945312 -14.316406 6.1875 -13.390625 C 5.425781 -12.460938 5.003906 -11.1875 4.921875 -9.5625 Z M 10.515625 -9.5625 "/></g></g></g><g fill="#ffffff" fill-opacity="1"><g transform="translate(287.227738, 224.218668)"><g><path d="M 1.34375 0.109375 C 1.175781 0.109375 1.039062 0.0390625 0.9375 -0.09375 C 0.84375 -0.238281 0.796875 -0.398438 0.796875 -0.578125 C 0.816406 -0.878906 0.878906 -1.054688 0.984375 -1.109375 C 1.085938 -1.171875 1.285156 -1.203125 1.578125 -1.203125 C 2.171875 -1.203125 2.59375 -1.304688 2.84375 -1.515625 C 3.101562 -1.722656 3.253906 -1.960938 3.296875 -2.234375 C 3.347656 -2.503906 3.375 -2.941406 3.375 -3.546875 L 3.375 -20.3125 C 3.375 -20.90625 3.351562 -21.335938 3.3125 -21.609375 C 3.28125 -21.890625 3.140625 -22.132812 2.890625 -22.34375 C 2.640625 -22.550781 2.210938 -22.65625 1.609375 -22.65625 C 1.335938 -22.65625 1.132812 -22.691406 1 -22.765625 C 0.863281 -22.847656 0.796875 -23.039062 0.796875 -23.34375 C 0.796875 -23.476562 0.835938 -23.609375 0.921875 -23.734375 C 1.015625 -23.859375 1.15625 -23.929688 1.34375 -23.953125 C 2.78125 -24.160156 4.015625 -24.460938 5.046875 -24.859375 C 5.367188 -24.972656 5.632812 -25.039062 5.84375 -25.0625 L 5.953125 -25.0625 C 6.316406 -25.0625 6.5 -24.84375 6.5 -24.40625 L 6.5 -3.546875 C 6.5 -2.941406 6.519531 -2.503906 6.5625 -2.234375 C 6.613281 -1.960938 6.765625 -1.722656 7.015625 -1.515625 C 7.265625 -1.304688 7.6875 -1.203125 8.28125 -1.203125 L 8.484375 -1.203125 C 8.671875 -1.203125 8.8125 -1.164062 8.90625 -1.09375 C 9 -1.03125 9.054688 -0.859375 9.078125 -0.578125 C 9.078125 -0.398438 9.03125 -0.238281 8.9375 -0.09375 C 8.84375 0.0390625 8.707031 0.109375 8.53125 0.109375 C 7.195312 0.0351562 5.992188 0 4.921875 0 C 3.890625 0 2.695312 0.0351562 1.34375 0.109375 Z M 1.34375 0.109375 "/></g></g></g><g fill="#ffffff" fill-opacity="1"><g transform="translate(297.057869, 224.218668)"><g><path d="M 1.34375 0.109375 C 1.175781 0.109375 1.039062 0.0390625 0.9375 -0.09375 C 0.84375 -0.238281 0.796875 -0.398438 0.796875 -0.578125 C 0.816406 -0.878906 0.878906 -1.054688 0.984375 -1.109375 C 1.085938 -1.171875 1.285156 -1.203125 1.578125 -1.203125 C 2.171875 -1.203125 2.59375 -1.304688 2.84375 -1.515625 C 3.101562 -1.722656 3.253906 -1.960938 3.296875 -2.234375 C 3.347656 -2.503906 3.375 -2.941406 3.375 -3.546875 L 3.375 -20.3125 C 3.375 -20.90625 3.351562 -21.335938 3.3125 -21.609375 C 3.28125 -21.890625 3.140625 -22.132812 2.890625 -22.34375 C 2.640625 -22.550781 2.210938 -22.65625 1.609375 -22.65625 C 1.335938 -22.65625 1.132812 -22.691406 1 -22.765625 C 0.863281 -22.847656 0.796875 -23.039062 0.796875 -23.34375 C 0.796875 -23.476562 0.835938 -23.609375 0.921875 -23.734375 C 1.015625 -23.859375 1.15625 -23.929688 1.34375 -23.953125 C 2.78125 -24.160156 4.015625 -24.460938 5.046875 -24.859375 C 5.367188 -24.972656 5.632812 -25.039062 5.84375 -25.0625 L 5.953125 -25.0625 C 6.316406 -25.0625 6.5 -24.84375 6.5 -24.40625 L 6.5 -3.546875 C 6.5 -2.941406 6.519531 -2.503906 6.5625 -2.234375 C 6.613281 -1.960938 6.765625 -1.722656 7.015625 -1.515625 C 7.265625 -1.304688 7.6875 -1.203125 8.28125 -1.203125 L 8.484375 -1.203125 C 8.671875 -1.203125 8.8125 -1.164062 8.90625 -1.09375 C 9 -1.03125 9.054688 -0.859375 9.078125 -0.578125 C 9.078125 -0.398438 9.03125 -0.238281 8.9375 -0.09375 C 8.84375 0.0390625 8.707031 0.109375 8.53125 0.109375 C 7.195312 0.0351562 5.992188 0 4.921875 0 C 3.890625 0 2.695312 0.0351562 1.34375 0.109375 Z M 1.34375 0.109375 "/></g></g></g></svg>
