<svg xmlns="http://www.w3.org/2000/svg" xmlns:xlink="http://www.w3.org/1999/xlink" width="1800" zoomAndPan="magnify" viewBox="0 0 1350 525.000007" height="700" preserveAspectRatio="xMidYMid meet" version="1.0"><defs><g/><clipPath id="c3aee7d601"><path d="M 1.285156 0 L 1348.714844 0 L 1348.714844 524 L 1.285156 524 Z M 1.285156 0 " clip-rule="nonzero"/></clipPath><clipPath id="cba168e08d"><rect x="0" width="432" y="0" height="92"/></clipPath></defs><g clip-path="url(#c3aee7d601)"><path fill="#ffffff" d="M 1.285156 0 L 1348.714844 0 L 1348.714844 524 L 1.285156 524 Z M 1.285156 0 " fill-opacity="1" fill-rule="nonzero"/><path fill="#172405" d="M 1.285156 0 L 1348.714844 0 L 1348.714844 524 L 1.285156 524 Z M 1.285156 0 " fill-opacity="1" fill-rule="nonzero"/></g><path fill="#8bc53f" d="M 400.753906 143.164062 C 313.59375 131.589844 262.957031 195.761719 268.59375 261.164062 C 271.671875 296.90625 299.722656 328.355469 337.125 323.652344 C 361.75 320.5625 384.992188 299.5 386.617188 274.585938 C 389.570312 229.136719 353.113281 192.730469 306.929688 204.730469 C 350.796875 221.4375 321.753906 263.726562 364.828125 280.9375 C 366.085938 269.121094 361.460938 260.507812 355.535156 252.597656 C 361.207031 254.972656 364.941406 259.515625 367.996094 264.820312 C 368.25 249.1875 360.191406 241.105469 349.679688 235.257812 C 352.273438 234.996094 355.441406 236.414062 357.75 237.460938 C 355.15625 232.089844 349.933594 225.484375 345.066406 220.167969 C 352.015625 224.746094 358.109375 230.261719 363.351562 236.722656 C 363.929688 234.785156 364.414062 231.824219 366.8125 230.371094 C 366.25 234.734375 366.496094 239.046875 367.546875 243.320312 C 370.570312 246.871094 373.128906 253.476562 375.179688 260.613281 C 377.105469 258.652344 379.378906 256.773438 381.960938 256.773438 C 379.421875 258.800781 377.546875 261.320312 376.332031 264.335938 C 378.847656 287.070312 357.113281 314.949219 333.675781 314.742188 C 258.011719 314.09375 244.671875 154.84375 400.753906 143.164062 Z M 400.753906 143.164062 " fill-opacity="1" fill-rule="evenodd"/><path fill="#8bc53f" d="M 337.746094 358.6875 C 434.589844 371.507812 502.980469 298.347656 480.890625 203.820312 C 527.363281 292.894531 441.578125 392.527344 337.746094 358.6875 Z M 337.746094 358.6875 " fill-opacity="1" fill-rule="evenodd"/><path fill="#8bc53f" d="M 295.734375 328.160156 C 335.738281 343.679688 370.8125 347.089844 401.800781 315.476562 C 375.605469 357.535156 332.546875 353.6875 295.734375 328.160156 Z M 295.734375 328.160156 " fill-opacity="1" fill-rule="evenodd"/><path fill="#8bc53f" d="M 401.753906 220.203125 C 423.164062 270.089844 400.808594 337.671875 352.894531 332.566406 C 424.960938 301.964844 378.132812 257.488281 402.550781 193.433594 C 413.582031 164.519531 438.1875 145.265625 485.535156 142.265625 C 445.886719 183.460938 480.5 253.464844 417.628906 260.496094 C 417.988281 243.203125 424.765625 228.214844 438.152344 215.535156 C 433.886719 217.808594 429.992188 220.605469 426.472656 223.917969 C 422.953125 227.234375 419.925781 230.953125 417.398438 235.074219 C 417.019531 216.628906 426.484375 202.449219 442.070312 190.863281 C 438.734375 191.285156 435.574219 192.277344 432.589844 193.832031 C 429.605469 195.386719 426.980469 197.410156 424.722656 199.898438 C 426.519531 191.621094 431.394531 183.828125 437.402344 176.207031 C 433.175781 179.417969 429.371094 183.066406 425.988281 187.15625 C 422.609375 191.246094 419.738281 195.667969 417.375 200.417969 C 417.167969 197.273438 415.222656 194.65625 412.765625 192.117188 C 415.199219 205.332031 411.542969 216.917969 408.855469 228.757812 C 408.292969 226.914062 407.394531 225.25 406.164062 223.769531 C 404.933594 222.285156 403.464844 221.097656 401.753906 220.203125 Z M 401.753906 220.203125 " fill-opacity="1" fill-rule="evenodd"/><path fill="#8bc53f" d="M 391.9375 183.730469 C 392.019531 184.339844 392.070312 184.953125 392.09375 185.570312 C 392.113281 186.183594 392.105469 186.800781 392.066406 187.414062 C 392.027344 188.03125 391.960938 188.640625 391.859375 189.25 C 391.761719 189.855469 391.632812 190.457031 391.476562 191.054688 C 391.316406 191.648438 391.128906 192.234375 390.914062 192.8125 C 390.699219 193.386719 390.457031 193.953125 390.183594 194.507812 C 389.914062 195.058594 389.617188 195.597656 389.292969 196.121094 C 388.96875 196.644531 388.617188 197.152344 388.246094 197.640625 C 387.871094 198.128906 387.472656 198.601562 387.054688 199.050781 C 386.632812 199.5 386.195312 199.929688 385.730469 200.335938 C 385.269531 200.746094 384.789062 201.128906 384.289062 201.488281 C 383.789062 201.847656 383.273438 202.183594 382.738281 202.492188 C 382.207031 202.800781 381.660156 203.082031 381.101562 203.339844 C 380.539062 203.59375 379.96875 203.820312 379.386719 204.019531 C 378.804688 204.21875 378.210938 204.390625 377.613281 204.53125 C 377.011719 204.671875 376.410156 204.785156 375.796875 204.863281 C 375.1875 204.945312 374.574219 205 373.960938 205.019531 C 373.34375 205.042969 372.730469 205.03125 372.113281 204.996094 C 371.5 204.957031 370.886719 204.886719 370.28125 204.789062 C 369.671875 204.6875 369.070312 204.558594 368.476562 204.402344 C 367.878906 204.242188 367.292969 204.058594 366.71875 203.839844 C 366.140625 203.625 365.574219 203.382812 365.023438 203.109375 C 364.46875 202.839844 363.929688 202.542969 363.40625 202.21875 C 362.882812 201.894531 362.378906 201.546875 361.886719 201.171875 C 361.398438 200.796875 360.929688 200.402344 360.476562 199.980469 C 360.027344 199.5625 359.597656 199.121094 359.191406 198.65625 C 358.785156 198.195312 358.402344 197.714844 358.042969 197.214844 C 357.679688 196.714844 357.347656 196.199219 357.039062 195.667969 C 356.730469 195.132812 356.445312 194.585938 356.191406 194.027344 C 355.9375 193.464844 355.707031 192.894531 355.507812 192.3125 C 355.308594 191.730469 355.140625 191.140625 355 190.539062 C 354.855469 189.941406 354.746094 189.335938 354.664062 188.722656 C 354.582031 188.113281 354.53125 187.5 354.507812 186.886719 C 354.488281 186.269531 354.496094 185.65625 354.535156 185.039062 C 354.574219 184.425781 354.644531 183.816406 354.742188 183.207031 C 354.839844 182.597656 354.96875 181.996094 355.128906 181.402344 C 355.285156 180.808594 355.472656 180.222656 355.6875 179.644531 C 355.902344 179.066406 356.148438 178.503906 356.417969 177.949219 C 356.6875 177.394531 356.988281 176.859375 357.308594 176.335938 C 357.632812 175.8125 357.984375 175.304688 358.355469 174.816406 C 358.730469 174.324219 359.128906 173.855469 359.546875 173.40625 C 359.96875 172.953125 360.410156 172.527344 360.871094 172.117188 C 361.332031 171.710938 361.8125 171.328125 362.3125 170.96875 C 362.8125 170.609375 363.328125 170.273438 363.863281 169.964844 C 364.394531 169.65625 364.941406 169.375 365.5 169.117188 C 366.0625 168.863281 366.632812 168.636719 367.214844 168.4375 C 367.800781 168.238281 368.390625 168.066406 368.988281 167.925781 C 369.589844 167.785156 370.195312 167.671875 370.804688 167.589844 C 371.414062 167.507812 372.027344 167.457031 372.644531 167.4375 C 373.257812 167.414062 373.875 167.421875 374.488281 167.460938 C 375.101562 167.5 375.714844 167.570312 376.320312 167.667969 C 376.929688 167.765625 377.53125 167.894531 378.125 168.054688 C 378.722656 168.210938 379.308594 168.398438 379.886719 168.613281 C 380.460938 168.828125 381.027344 169.074219 381.578125 169.34375 C 382.132812 169.617188 382.671875 169.914062 383.195312 170.238281 C 383.71875 170.5625 384.226562 170.910156 384.714844 171.285156 C 385.203125 171.65625 385.671875 172.054688 386.125 172.472656 C 386.574219 172.894531 387.003906 173.335938 387.410156 173.796875 C 387.816406 174.257812 388.199219 174.742188 388.5625 175.242188 C 388.921875 175.738281 389.253906 176.257812 389.5625 176.789062 C 389.875 177.320312 390.15625 177.867188 390.410156 178.429688 C 390.667969 178.988281 390.894531 179.558594 391.09375 180.144531 C 391.292969 180.726562 391.460938 181.316406 391.605469 181.917969 C 391.746094 182.515625 391.855469 183.121094 391.9375 183.730469 Z M 391.9375 183.730469 " fill-opacity="1" fill-rule="nonzero"/><g transform="matrix(1, 0, 0, 1, 518, 225)"><g clip-path="url(#cba168e08d)"><g fill="#ffffff" fill-opacity="1"><g transform="translate(0.90712, 72.24412)"><g><path d="M 8.875 -40.0625 C 7.988281 -42.3125 7.125 -43.878906 6.28125 -44.765625 C 5.445312 -45.660156 4.21875 -46.269531 2.59375 -46.59375 C 2.382812 -46.644531 2.066406 -46.707031 1.640625 -46.78125 C 1.222656 -46.863281 0.945312 -47.019531 0.8125 -47.25 C 0.6875 -47.488281 0.625 -47.867188 0.625 -48.390625 C 0.625 -49.023438 0.796875 -49.445312 1.140625 -49.65625 C 1.484375 -49.863281 2.019531 -49.96875 2.75 -49.96875 C 6.675781 -49.96875 9.660156 -49.363281 11.703125 -48.15625 C 13.742188 -46.957031 15.367188 -44.8125 16.578125 -41.71875 L 25.53125 -12.96875 L 25.84375 -12.96875 L 35.4375 -49.578125 L 39.515625 -49.578125 L 52.328125 -12.96875 L 52.5625 -12.96875 L 61.4375 -42.578125 C 61.644531 -43.367188 61.75 -44.050781 61.75 -44.625 C 61.75 -45.351562 61.484375 -45.835938 60.953125 -46.078125 C 60.429688 -46.316406 59.441406 -46.4375 57.984375 -46.4375 L 57.5 -46.4375 C 56.976562 -46.4375 56.613281 -46.523438 56.40625 -46.703125 C 56.195312 -46.890625 56.066406 -47.347656 56.015625 -48.078125 C 56.015625 -48.546875 56.128906 -48.953125 56.359375 -49.296875 C 56.597656 -49.640625 56.925781 -49.8125 57.34375 -49.8125 C 60.75 -49.65625 63.601562 -49.578125 65.90625 -49.578125 C 66.90625 -49.578125 68.820312 -49.628906 71.65625 -49.734375 L 73.296875 -49.8125 C 73.765625 -49.8125 74.117188 -49.640625 74.359375 -49.296875 C 74.597656 -48.953125 74.71875 -48.546875 74.71875 -48.078125 C 74.664062 -47.347656 74.53125 -46.890625 74.3125 -46.703125 C 74.101562 -46.523438 73.738281 -46.4375 73.21875 -46.4375 C 70.914062 -46.4375 69.117188 -46.054688 67.828125 -45.296875 C 66.546875 -44.535156 65.617188 -43.132812 65.046875 -41.09375 L 52.171875 0.78125 L 48.46875 0.78125 L 35.75 -36.6875 L 25.609375 0.78125 L 21.921875 0.78125 Z M 8.875 -40.0625 "/></g></g></g><g fill="#ffffff" fill-opacity="1"><g transform="translate(74.265843, 72.24412)"><g><path d="M 3.84375 0.234375 C 3.476562 0.234375 3.175781 0.078125 2.9375 -0.234375 C 2.707031 -0.546875 2.59375 -0.910156 2.59375 -1.328125 C 2.644531 -2.015625 2.800781 -2.421875 3.0625 -2.546875 C 3.320312 -2.679688 3.796875 -2.75 4.484375 -2.75 C 5.835938 -2.75 6.800781 -2.984375 7.375 -3.453125 C 7.957031 -3.921875 8.285156 -4.46875 8.359375 -5.09375 C 8.441406 -5.726562 8.484375 -6.726562 8.484375 -8.09375 L 8.484375 -26.078125 C 8.484375 -27.441406 8.441406 -28.4375 8.359375 -29.0625 C 8.285156 -29.695312 7.957031 -30.25 7.375 -30.71875 C 6.800781 -31.1875 5.835938 -31.421875 4.484375 -31.421875 C 3.847656 -31.421875 3.375 -31.507812 3.0625 -31.6875 C 2.75 -31.875 2.59375 -32.3125 2.59375 -33 C 2.59375 -33.3125 2.695312 -33.609375 2.90625 -33.890625 C 3.113281 -34.179688 3.425781 -34.351562 3.84375 -34.40625 C 7.144531 -34.882812 9.972656 -35.566406 12.328125 -36.453125 C 13.066406 -36.710938 13.671875 -36.867188 14.140625 -36.921875 L 14.375 -36.921875 C 15.21875 -36.921875 15.640625 -36.425781 15.640625 -35.4375 L 15.640625 -8.09375 C 15.640625 -6.726562 15.691406 -5.726562 15.796875 -5.09375 C 15.898438 -4.46875 16.238281 -3.921875 16.8125 -3.453125 C 17.382812 -2.984375 18.351562 -2.75 19.71875 -2.75 L 20.1875 -2.75 C 20.601562 -2.75 20.914062 -2.671875 21.125 -2.515625 C 21.34375 -2.359375 21.476562 -1.960938 21.53125 -1.328125 C 21.53125 -0.910156 21.421875 -0.546875 21.203125 -0.234375 C 20.992188 0.078125 20.679688 0.234375 20.265625 0.234375 C 17.234375 0.078125 14.484375 0 12.015625 0 C 9.660156 0 6.9375 0.078125 3.84375 0.234375 Z M 11.625 -45.640625 C 10.15625 -45.640625 8.921875 -46.097656 7.921875 -47.015625 C 6.929688 -47.929688 6.4375 -49.070312 6.4375 -50.4375 C 6.4375 -51.644531 7.035156 -52.71875 8.234375 -53.65625 C 9.441406 -54.601562 10.804688 -55.078125 12.328125 -55.078125 C 13.640625 -55.078125 14.710938 -54.617188 15.546875 -53.703125 C 16.390625 -52.785156 16.8125 -51.617188 16.8125 -50.203125 C 16.8125 -48.941406 16.3125 -47.863281 15.3125 -46.96875 C 14.320312 -46.082031 13.09375 -45.640625 11.625 -45.640625 Z M 11.625 -45.640625 "/></g></g></g><g fill="#ffffff" fill-opacity="1"><g transform="translate(97.51444, 72.24412)"><g><path d="M 3.0625 0.234375 C 2.695312 0.234375 2.394531 0.078125 2.15625 -0.234375 C 1.925781 -0.546875 1.8125 -0.910156 1.8125 -1.328125 C 1.863281 -2.015625 2.003906 -2.421875 2.234375 -2.546875 C 2.472656 -2.679688 2.929688 -2.75 3.609375 -2.75 C 4.972656 -2.75 5.941406 -2.984375 6.515625 -3.453125 C 7.097656 -3.921875 7.441406 -4.46875 7.546875 -5.09375 C 7.648438 -5.726562 7.703125 -6.726562 7.703125 -8.09375 L 7.703125 -46.4375 C 7.703125 -47.789062 7.660156 -48.78125 7.578125 -49.40625 C 7.503906 -50.039062 7.175781 -50.59375 6.59375 -51.0625 C 6.019531 -51.53125 5.050781 -51.765625 3.6875 -51.765625 C 3.0625 -51.765625 2.59375 -51.859375 2.28125 -52.046875 C 1.96875 -52.234375 1.8125 -52.664062 1.8125 -53.34375 C 1.8125 -53.65625 1.914062 -53.953125 2.125 -54.234375 C 2.332031 -54.523438 2.644531 -54.703125 3.0625 -54.765625 C 6.363281 -55.234375 9.191406 -55.910156 11.546875 -56.796875 C 12.285156 -57.054688 12.890625 -57.210938 13.359375 -57.265625 L 13.59375 -57.265625 C 14.425781 -57.265625 14.84375 -56.769531 14.84375 -55.78125 L 14.84375 -8.09375 C 14.84375 -6.726562 14.894531 -5.726562 15 -5.09375 C 15.101562 -4.46875 15.441406 -3.921875 16.015625 -3.453125 C 16.597656 -2.984375 17.570312 -2.75 18.9375 -2.75 L 19.40625 -2.75 C 19.820312 -2.75 20.132812 -2.671875 20.34375 -2.515625 C 20.550781 -2.359375 20.679688 -1.960938 20.734375 -1.328125 C 20.734375 -0.910156 20.628906 -0.546875 20.421875 -0.234375 C 20.210938 0.078125 19.898438 0.234375 19.484375 0.234375 C 16.441406 0.078125 13.691406 0 11.234375 0 C 8.878906 0 6.15625 0.078125 3.0625 0.234375 Z M 3.0625 0.234375 "/></g></g></g><g fill="#ffffff" fill-opacity="1"><g transform="translate(119.977609, 72.24412)"><g><path d="M 19.71875 0.9375 C 16.78125 0.9375 14.054688 0.140625 11.546875 -1.453125 C 9.035156 -3.046875 7.019531 -5.269531 5.5 -8.125 C 3.976562 -10.976562 3.21875 -14.210938 3.21875 -17.828125 C 3.21875 -21.078125 4.003906 -24.140625 5.578125 -27.015625 C 7.148438 -29.898438 9.320312 -32.207031 12.09375 -33.9375 C 14.875 -35.664062 17.96875 -36.53125 21.375 -36.53125 C 22.988281 -36.53125 24.609375 -36.332031 26.234375 -35.9375 C 27.859375 -35.550781 29.273438 -35.015625 30.484375 -34.328125 L 30.71875 -34.328125 L 30.71875 -46.359375 C 30.71875 -47.710938 30.675781 -48.703125 30.59375 -49.328125 C 30.519531 -49.960938 30.191406 -50.515625 29.609375 -50.984375 C 29.035156 -51.453125 28.070312 -51.6875 26.71875 -51.6875 C 26.082031 -51.6875 25.609375 -51.78125 25.296875 -51.96875 C 24.984375 -52.15625 24.828125 -52.585938 24.828125 -53.265625 C 24.828125 -53.578125 24.929688 -53.875 25.140625 -54.15625 C 25.347656 -54.445312 25.660156 -54.617188 26.078125 -54.671875 C 29.378906 -55.148438 32.207031 -55.832031 34.5625 -56.71875 C 35.300781 -56.976562 35.90625 -57.132812 36.375 -57.1875 L 36.609375 -57.1875 C 37.441406 -57.1875 37.859375 -56.691406 37.859375 -55.703125 L 37.859375 -7.234375 C 37.859375 -4.140625 39.90625 -2.59375 44 -2.59375 C 44.882812 -2.59375 45.328125 -2.171875 45.328125 -1.328125 C 45.328125 -0.597656 44.882812 -0.15625 44 0 L 31.5 0.859375 C 31.132812 0.859375 30.925781 0.738281 30.875 0.5 C 30.820312 0.269531 30.796875 -0.128906 30.796875 -0.703125 L 30.796875 -3.84375 L 30.5625 -3.84375 C 29.195312 -2.4375 27.53125 -1.285156 25.5625 -0.390625 C 23.601562 0.492188 21.65625 0.9375 19.71875 0.9375 Z M 22.390625 -2.984375 C 24.222656 -2.984375 25.78125 -3.335938 27.0625 -4.046875 C 28.34375 -4.753906 29.5625 -5.707031 30.71875 -6.90625 L 30.71875 -27.65625 C 30.25 -29.175781 29.265625 -30.5625 27.765625 -31.8125 C 26.273438 -33.070312 24.40625 -33.703125 22.15625 -33.703125 C 20.113281 -33.703125 18.265625 -33.0625 16.609375 -31.78125 C 14.960938 -30.5 13.664062 -28.625 12.71875 -26.15625 C 11.78125 -23.695312 11.3125 -20.789062 11.3125 -17.4375 C 11.3125 -13.40625 12.265625 -9.988281 14.171875 -7.1875 C 16.085938 -4.382812 18.828125 -2.984375 22.390625 -2.984375 Z M 22.390625 -2.984375 "/></g></g></g><g fill="#ffffff" fill-opacity="1"><g transform="translate(165.532284, 72.24412)"><g/></g></g><g fill="#ffffff" fill-opacity="1"><g transform="translate(183.047264, 72.24412)"><g><path d="M 30.5625 1.578125 C 26.164062 1.578125 22.09375 0.816406 18.34375 -0.703125 C 14.601562 -2.222656 11.578125 -4.539062 9.265625 -7.65625 C 6.960938 -10.769531 5.8125 -14.660156 5.8125 -19.328125 C 5.8125 -23.203125 6.9375 -26.566406 9.1875 -29.421875 C 11.4375 -32.273438 14.632812 -34.039062 18.78125 -34.71875 L 18.78125 -34.953125 C 15.476562 -37.421875 13.828125 -40.488281 13.828125 -44.15625 C 13.828125 -47.613281 15.082031 -50.390625 17.59375 -52.484375 C 20.113281 -54.578125 23.570312 -55.625 27.96875 -55.625 C 31.113281 -55.625 33.757812 -54.925781 35.90625 -53.53125 C 38.050781 -52.144531 39.125 -50.117188 39.125 -47.453125 C 39.125 -45.773438 38.640625 -44.332031 37.671875 -43.125 C 36.703125 -41.925781 35.40625 -41.328125 33.78125 -41.328125 C 32.789062 -41.328125 31.941406 -41.585938 31.234375 -42.109375 C 30.523438 -42.628906 30.171875 -43.070312 30.171875 -43.4375 C 30.171875 -43.5 30.40625 -43.738281 30.875 -44.15625 C 31.34375 -44.570312 31.773438 -45.082031 32.171875 -45.6875 C 32.566406 -46.289062 32.765625 -46.984375 32.765625 -47.765625 C 32.765625 -49.285156 32.226562 -50.503906 31.15625 -51.421875 C 30.082031 -52.335938 28.734375 -52.796875 27.109375 -52.796875 C 24.585938 -52.796875 22.632812 -52.035156 21.25 -50.515625 C 19.863281 -48.992188 19.171875 -47.109375 19.171875 -44.859375 C 19.171875 -41.035156 20.769531 -38.257812 23.96875 -36.53125 L 26.546875 -36.53125 C 27.390625 -36.53125 27.953125 -36.4375 28.234375 -36.25 C 28.523438 -36.070312 28.695312 -35.535156 28.75 -34.640625 C 28.75 -34.117188 28.617188 -33.675781 28.359375 -33.3125 C 28.097656 -32.945312 27.734375 -32.765625 27.265625 -32.765625 L 24.515625 -32.765625 C 21.109375 -32.453125 18.523438 -31.113281 16.765625 -28.75 C 15.015625 -26.394531 14.140625 -23.671875 14.140625 -20.578125 C 14.140625 -17.234375 14.925781 -14.300781 16.5 -11.78125 C 18.070312 -9.269531 20.257812 -7.332031 23.0625 -5.96875 C 25.863281 -4.601562 29.046875 -3.921875 32.609375 -3.921875 C 36.429688 -3.921875 39.9375 -4.71875 43.125 -6.3125 C 46.320312 -7.914062 48.863281 -10.117188 50.75 -12.921875 C 52.632812 -15.722656 53.578125 -18.878906 53.578125 -22.390625 C 53.578125 -25.429688 52.738281 -28.078125 51.0625 -30.328125 C 49.382812 -32.578125 47.082031 -33.703125 44.15625 -33.703125 C 42.632812 -33.703125 41.148438 -33.269531 39.703125 -32.40625 C 38.265625 -31.539062 37.546875 -30.320312 37.546875 -28.75 C 37.546875 -27.914062 37.769531 -27.195312 38.21875 -26.59375 C 38.664062 -25.988281 39.332031 -25.609375 40.21875 -25.453125 C 41.582031 -25.296875 42.679688 -25.554688 43.515625 -26.234375 C 44.359375 -26.921875 44.832031 -27.289062 44.9375 -27.34375 C 45.195312 -27.289062 45.523438 -26.9375 45.921875 -26.28125 C 46.316406 -25.625 46.515625 -24.878906 46.515625 -24.046875 C 46.515625 -22.472656 45.972656 -21.238281 44.890625 -20.34375 C 43.816406 -19.457031 42.5 -19.015625 40.9375 -19.015625 C 38.945312 -19.015625 37.347656 -19.8125 36.140625 -21.40625 C 34.929688 -23 34.328125 -25.054688 34.328125 -27.578125 C 34.328125 -31.347656 35.320312 -34.226562 37.3125 -36.21875 C 39.300781 -38.207031 41.65625 -39.554688 44.375 -40.265625 C 47.101562 -40.972656 50.644531 -41.585938 55 -42.109375 C 58.820312 -42.472656 61.625 -42.945312 63.40625 -43.53125 C 64.550781 -43.945312 65.503906 -44.535156 66.265625 -45.296875 C 67.023438 -46.054688 67.40625 -46.90625 67.40625 -47.84375 C 67.40625 -49.414062 66.4375 -50.332031 64.5 -50.59375 C 63.132812 -50.75 62.03125 -50.484375 61.1875 -49.796875 C 60.351562 -49.117188 59.882812 -48.753906 59.78125 -48.703125 C 59.46875 -48.753906 59.101562 -49.171875 58.6875 -49.953125 C 58.269531 -50.742188 58.140625 -51.640625 58.296875 -52.640625 C 58.503906 -54.109375 59.128906 -55.207031 60.171875 -55.9375 C 61.222656 -56.664062 62.457031 -57.03125 63.875 -57.03125 C 65.019531 -57.03125 65.988281 -56.847656 66.78125 -56.484375 C 68.03125 -55.910156 68.941406 -54.992188 69.515625 -53.734375 C 70.097656 -52.472656 70.390625 -51.085938 70.390625 -49.578125 C 70.390625 -46.742188 69.484375 -44.265625 67.671875 -42.140625 C 65.867188 -40.023438 63.445312 -38.40625 60.40625 -37.28125 C 57.375 -36.15625 54.023438 -35.59375 50.359375 -35.59375 C 54.859375 -31.769531 57.109375 -27.34375 57.109375 -22.3125 C 57.109375 -17.488281 55.941406 -13.269531 53.609375 -9.65625 C 51.285156 -6.050781 48.109375 -3.273438 44.078125 -1.328125 C 40.046875 0.609375 35.539062 1.578125 30.5625 1.578125 Z M 30.5625 1.578125 "/></g></g></g><g fill="#ffffff" fill-opacity="1"><g transform="translate(254.363884, 72.24412)"><g/></g></g><g fill="#ffffff" fill-opacity="1"><g transform="translate(271.878864, 72.24412)"><g><path d="M 8.875 -40.0625 C 7.988281 -42.3125 7.125 -43.878906 6.28125 -44.765625 C 5.445312 -45.660156 4.21875 -46.269531 2.59375 -46.59375 C 2.382812 -46.644531 2.066406 -46.707031 1.640625 -46.78125 C 1.222656 -46.863281 0.945312 -47.019531 0.8125 -47.25 C 0.6875 -47.488281 0.625 -47.867188 0.625 -48.390625 C 0.625 -49.023438 0.796875 -49.445312 1.140625 -49.65625 C 1.484375 -49.863281 2.019531 -49.96875 2.75 -49.96875 C 6.675781 -49.96875 9.660156 -49.363281 11.703125 -48.15625 C 13.742188 -46.957031 15.367188 -44.8125 16.578125 -41.71875 L 25.53125 -12.96875 L 25.84375 -12.96875 L 35.4375 -49.578125 L 39.515625 -49.578125 L 52.328125 -12.96875 L 52.5625 -12.96875 L 61.4375 -42.578125 C 61.644531 -43.367188 61.75 -44.050781 61.75 -44.625 C 61.75 -45.351562 61.484375 -45.835938 60.953125 -46.078125 C 60.429688 -46.316406 59.441406 -46.4375 57.984375 -46.4375 L 57.5 -46.4375 C 56.976562 -46.4375 56.613281 -46.523438 56.40625 -46.703125 C 56.195312 -46.890625 56.066406 -47.347656 56.015625 -48.078125 C 56.015625 -48.546875 56.128906 -48.953125 56.359375 -49.296875 C 56.597656 -49.640625 56.925781 -49.8125 57.34375 -49.8125 C 60.75 -49.65625 63.601562 -49.578125 65.90625 -49.578125 C 66.90625 -49.578125 68.820312 -49.628906 71.65625 -49.734375 L 73.296875 -49.8125 C 73.765625 -49.8125 74.117188 -49.640625 74.359375 -49.296875 C 74.597656 -48.953125 74.71875 -48.546875 74.71875 -48.078125 C 74.664062 -47.347656 74.53125 -46.890625 74.3125 -46.703125 C 74.101562 -46.523438 73.738281 -46.4375 73.21875 -46.4375 C 70.914062 -46.4375 69.117188 -46.054688 67.828125 -45.296875 C 66.546875 -44.535156 65.617188 -43.132812 65.046875 -41.09375 L 52.171875 0.78125 L 48.46875 0.78125 L 35.75 -36.6875 L 25.609375 0.78125 L 21.921875 0.78125 Z M 8.875 -40.0625 "/></g></g></g><g fill="#ffffff" fill-opacity="1"><g transform="translate(345.237586, 72.24412)"><g><path d="M 21.609375 0.9375 C 17.679688 0.9375 14.34375 0.101562 11.59375 -1.5625 C 8.84375 -3.238281 6.757812 -5.519531 5.34375 -8.40625 C 3.925781 -11.289062 3.21875 -14.484375 3.21875 -17.984375 C 3.21875 -21.078125 3.9375 -24.050781 5.375 -26.90625 C 6.820312 -29.757812 8.878906 -32.078125 11.546875 -33.859375 C 14.222656 -35.640625 17.285156 -36.53125 20.734375 -36.53125 C 25.398438 -36.53125 28.988281 -35.335938 31.5 -32.953125 C 34.019531 -30.566406 35.460938 -27.359375 35.828125 -23.328125 C 35.828125 -21.597656 35.351562 -20.421875 34.40625 -19.796875 C 33.46875 -19.171875 32.109375 -18.859375 30.328125 -18.859375 L 11.234375 -18.859375 C 11.234375 -13.984375 12.238281 -10.117188 14.25 -7.265625 C 16.269531 -4.410156 19.398438 -2.984375 23.640625 -2.984375 C 25.898438 -2.984375 27.8125 -3.46875 29.375 -4.4375 C 30.945312 -5.40625 32.441406 -7.039062 33.859375 -9.34375 C 34.117188 -9.601562 34.378906 -9.734375 34.640625 -9.734375 C 35.015625 -9.734375 35.332031 -9.628906 35.59375 -9.421875 C 36.113281 -9.109375 36.375 -8.640625 36.375 -8.015625 C 36.375 -7.703125 36.320312 -7.46875 36.21875 -7.3125 C 34.59375 -4.6875 32.535156 -2.65625 30.046875 -1.21875 C 27.554688 0.21875 24.742188 0.9375 21.609375 0.9375 Z M 24.046875 -21.84375 C 26.710938 -21.84375 28.125 -22.941406 28.28125 -25.140625 C 28.28125 -27.546875 27.625 -29.585938 26.3125 -31.265625 C 25.007812 -32.941406 23.148438 -33.78125 20.734375 -33.78125 C 18.066406 -33.78125 15.867188 -32.71875 14.140625 -30.59375 C 12.410156 -28.476562 11.441406 -25.5625 11.234375 -21.84375 Z M 24.046875 -21.84375 "/></g></g></g><g fill="#ffffff" fill-opacity="1"><g transform="translate(384.665931, 72.24412)"><g><path d="M 3.0625 0.234375 C 2.695312 0.234375 2.394531 0.078125 2.15625 -0.234375 C 1.925781 -0.546875 1.8125 -0.910156 1.8125 -1.328125 C 1.863281 -2.015625 2.003906 -2.421875 2.234375 -2.546875 C 2.472656 -2.679688 2.929688 -2.75 3.609375 -2.75 C 4.972656 -2.75 5.941406 -2.984375 6.515625 -3.453125 C 7.097656 -3.921875 7.441406 -4.46875 7.546875 -5.09375 C 7.648438 -5.726562 7.703125 -6.726562 7.703125 -8.09375 L 7.703125 -46.4375 C 7.703125 -47.789062 7.660156 -48.78125 7.578125 -49.40625 C 7.503906 -50.039062 7.175781 -50.59375 6.59375 -51.0625 C 6.019531 -51.53125 5.050781 -51.765625 3.6875 -51.765625 C 3.0625 -51.765625 2.59375 -51.859375 2.28125 -52.046875 C 1.96875 -52.234375 1.8125 -52.664062 1.8125 -53.34375 C 1.8125 -53.65625 1.914062 -53.953125 2.125 -54.234375 C 2.332031 -54.523438 2.644531 -54.703125 3.0625 -54.765625 C 6.363281 -55.234375 9.191406 -55.910156 11.546875 -56.796875 C 12.285156 -57.054688 12.890625 -57.210938 13.359375 -57.265625 L 13.59375 -57.265625 C 14.425781 -57.265625 14.84375 -56.769531 14.84375 -55.78125 L 14.84375 -8.09375 C 14.84375 -6.726562 14.894531 -5.726562 15 -5.09375 C 15.101562 -4.46875 15.441406 -3.921875 16.015625 -3.453125 C 16.597656 -2.984375 17.570312 -2.75 18.9375 -2.75 L 19.40625 -2.75 C 19.820312 -2.75 20.132812 -2.671875 20.34375 -2.515625 C 20.550781 -2.359375 20.679688 -1.960938 20.734375 -1.328125 C 20.734375 -0.910156 20.628906 -0.546875 20.421875 -0.234375 C 20.210938 0.078125 19.898438 0.234375 19.484375 0.234375 C 16.441406 0.078125 13.691406 0 11.234375 0 C 8.878906 0 6.15625 0.078125 3.0625 0.234375 Z M 3.0625 0.234375 "/></g></g></g><g fill="#ffffff" fill-opacity="1"><g transform="translate(407.1291, 72.24412)"><g><path d="M 3.0625 0.234375 C 2.695312 0.234375 2.394531 0.078125 2.15625 -0.234375 C 1.925781 -0.546875 1.8125 -0.910156 1.8125 -1.328125 C 1.863281 -2.015625 2.003906 -2.421875 2.234375 -2.546875 C 2.472656 -2.679688 2.929688 -2.75 3.609375 -2.75 C 4.972656 -2.75 5.941406 -2.984375 6.515625 -3.453125 C 7.097656 -3.921875 7.441406 -4.46875 7.546875 -5.09375 C 7.648438 -5.726562 7.703125 -6.726562 7.703125 -8.09375 L 7.703125 -46.4375 C 7.703125 -47.789062 7.660156 -48.78125 7.578125 -49.40625 C 7.503906 -50.039062 7.175781 -50.59375 6.59375 -51.0625 C 6.019531 -51.53125 5.050781 -51.765625 3.6875 -51.765625 C 3.0625 -51.765625 2.59375 -51.859375 2.28125 -52.046875 C 1.96875 -52.234375 1.8125 -52.664062 1.8125 -53.34375 C 1.8125 -53.65625 1.914062 -53.953125 2.125 -54.234375 C 2.332031 -54.523438 2.644531 -54.703125 3.0625 -54.765625 C 6.363281 -55.234375 9.191406 -55.910156 11.546875 -56.796875 C 12.285156 -57.054688 12.890625 -57.210938 13.359375 -57.265625 L 13.59375 -57.265625 C 14.425781 -57.265625 14.84375 -56.769531 14.84375 -55.78125 L 14.84375 -8.09375 C 14.84375 -6.726562 14.894531 -5.726562 15 -5.09375 C 15.101562 -4.46875 15.441406 -3.921875 16.015625 -3.453125 C 16.597656 -2.984375 17.570312 -2.75 18.9375 -2.75 L 19.40625 -2.75 C 19.820312 -2.75 20.132812 -2.671875 20.34375 -2.515625 C 20.550781 -2.359375 20.679688 -1.960938 20.734375 -1.328125 C 20.734375 -0.910156 20.628906 -0.546875 20.421875 -0.234375 C 20.210938 0.078125 19.898438 0.234375 19.484375 0.234375 C 16.441406 0.078125 13.691406 0 11.234375 0 C 8.878906 0 6.15625 0.078125 3.0625 0.234375 Z M 3.0625 0.234375 "/></g></g></g></g></g></svg>